{"title":"Geordie Shore S08E03 WEB-DL","uid":10715122,"size":603251578,"categoryP":"video","categoryS":"tv_shows","magnet":"?xt=urn:btih:16ae5303761d97a057d450526efda3720b43b5c7&amp;dn=Geordie+Shore+S08E03+WEB-DL&amp;tr=udp%3A%2F%2Ftracker.openbittorrent.com%3A80&amp;tr=udp%3A%2F%2Fopen.demonii.com%3A1337&amp;tr=udp%3A%2F%2Ftracker.coppersurfer.tk%3A6969&amp;tr=udp%3A%2F%2Fexodus.desync.com%3A6969","seeders":4,"leechers":0,"uploader":"jmanwf","files":1,"time":1407399012,"description":"Description\n\nCharlotte walks in as a double date is going on and finds out all about Gary getting with Marnie. Aaron secures a date with Holly after managing to complete her challenge.\n\n\nFormat : MPEG-4\nFormat profile : Base Media / Version 2\nCodec ID : mp42\nFile size : 1.45 GiB\nDuration : 42mn 25s\nOverall bit rate mode : Variable\nOverall bit rate : 4 885 Kbps\nMovie name : 803\nAlbum : Geordie Shore, Season 8\nPart/Position : 1\nPart/Total : 1\nTrack name/Position : 3\nTrack name/Total : 13\nPerformer : Geordie Shore\nGenre : Reality TV\ntime, as she walks in on a double\nRecorded date : UTC 2014-08-05 07:00:00\nEncoded date : UTC 2014-08-06 21:00:50\nTagged date : UTC 2014-08-06 21:04:03\n\nID : 2\nFormat : AVC\nFormat/Info : Advanced Video Codec\nFormat profile : &lt;a class=&quot;__cf_email__&quot; href=&quot;/cdn-cgi/l/email-protection&quot; data-cfemail=&quot;561e3f313e161a627866&quot;&gt;[email&amp;#160;protected]&lt;/a&gt;&lt;script cf-hash='f9e31' type=&quot;text/javascript&quot;&gt;\n/* &lt;![CDATA[ */!function(){try{var t=&quot;currentScript&quot;in document?document.currentScript:function(){for(var t=document.getElementsByTagName(&quot;script&quot;),e=t.length;e--;)if(t[e].getAttribute(&quot;cf-hash&quot;))return t[e]}();if(t&amp;&amp;t.previousSibling){var e,r,n,i,c=t.previousSibling,a=c.getAttribute(&quot;data-cfemail&quot;);if(a){for(e=&quot;&quot;,r=parseInt(a.substr(0,2),16),n=2;a.length-n;n+=2)i=parseInt(a.substr(n,2),16)^r,e+=String.fromCharCode(i);e=document.createTextNode(e),c.parentNode.replaceChild(e,c)}}}catch(u){}}();/* ]]&gt; */&lt;/script&gt;\nFormat settings, CABAC : Yes\nFormat settings, ReFrames : 4 frames\nCodec ID : avc1\nCodec ID/Info : Advanced Video Coding\nDuration : 42mn 25s\nBit rate : 4 754 Kbps\nWidth : 1 920 pixels\nHeight : 1 080 pixels\nDisplay aspect ratio : 16:9\nFrame rate : 25.000 fps\nColor space : YUV\nChroma subsampling : 4:2:0\nBit depth : 8 bits\nScan type : Progressive\nBits/(Pixel*Frame) : 0.092\nStream size : 1.41 GiB (97%)\nLanguage : English\nEncoded date : UTC 2014-08-06 21:02:56\nTagged date : UTC 2014-08-06 21:04:01\nColor primaries : BT.709\nTransfer characteristics : BT.709\nMatrix coefficients : BT.709\n\nAudio\nID : 1\nFormat : AAC\nFormat/Info : Advanced Audio Codec\nFormat profile : LC\nCodec ID : 40\nDuration : 42mn 25s\nBit rate mode : Variable\nBit rate : 127 Kbps\nMaximum bit rate : 198 Kbps\nChannel(s) : 2 channels\nChannel positions : Front: L R\nSampling rate : 48.0 KHz\nCompression mode : Lossy\nStream size : 38.6 MiB (3%)\nLanguage : English\nEncoded date : UTC 2014-08-06 21:00:54\nTagged date : UTC 2014-08-06 21:02:55","torrent":{"xt":"urn:btih:16ae5303761d97a057d450526efda3720b43b5c7","amp;dn":"Geordie+Shore+S08E03+WEB-DL","amp;tr":["udp%3A%2F%2Ftracker.openbittorrent.com%3A80","udp%3A%2F%2Fopen.demonii.com%3A1337","udp%3A%2F%2Ftracker.coppersurfer.tk%3A6969","udp%3A%2F%2Fexodus.desync.com%3A6969"],"infoHash":"16ae5303761d97a057d450526efda3720b43b5c7","infoHashBuffer":{"type":"Buffer","data":[22,174,83,3,118,29,151,160,87,212,80,82,110,253,163,114,11,67,181,199]},"announce":[],"urlList":[]}}